# File created by Blade
# Date/Time:  Thu Sep 25 15:31:15 2014
# Frame Rate: 120.000 fps
#------------------------------------------------------
:FULLY-SPECIFIED
:DEGREES
983
root -14.798128 36.221288 -0.766629 205.081064 -61.431414 0.063008
Spine -41.968026 20.577449 -0.681065
Head -91.208251 7.261180 -2.048553
LeftShoulder -18.025865 -4.271946 28.628375
LeftArm 98.330247 -59.284606 -63.798448
LeftForeArm 8.421867 -0.000000 25.506863
LeftHand -42.734033 -0.000000 94.466821
LeftHandThumb1 -26.253704 0.000000 33.147579
RightShoulder -16.634265 32.086656 -42.938934
RightArm 84.073847 38.504367 54.881625
RightForeArm -14.174110 0.000000 29.270315
RightHand -10.882718 -0.000000 -77.386126
RightHandThumb1 -24.326973 -0.000000 -32.862282
LeftUpLeg -57.970324 27.078202 28.466353
LeftLeg 4.121901 -0.000000 -0.000000
LeftFoot 32.476304 30.917858 -4.925055
LeftToeBase 12.706855 -0.000000 -0.000000
RightUpLeg 27.899273 4.493015 -31.694794
RightLeg 20.893057 -0.000000 -0.000000
RightFoot 43.336634 2.430392 -4.168647
RightToeBase 16.496783 -0.000000 -0.000000
984
root -14.906544 36.218353 -0.772884 204.941522 -61.499856 0.670700
Spine -42.215694 20.617838 -0.510284
Head -91.314124 7.130777 -2.147136
LeftShoulder -18.047051 -4.245742 28.566025
LeftArm 97.624580 -59.573728 -62.879750
LeftForeArm 7.860467 -0.000000 25.389831
LeftHand -42.643409 -0.000000 94.445096
LeftHandThumb1 -26.253704 0.000000 33.147579
RightShoulder -16.917448 32.051156 -43.148010
RightArm 84.055555 38.416558 54.773920
RightForeArm -13.839957 -0.000000 29.087568
RightHand -10.809177 -0.000000 -77.448074
RightHandThumb1 -24.326973 -0.000000 -32.862282
LeftUpLeg -58.006090 27.128626 28.607858
LeftLeg 4.139774 -0.000000 -0.000000
LeftFoot 32.598541 31.010982 -4.817256
LeftToeBase 12.793760 -0.000000 -0.000000
RightUpLeg 27.777752 4.868798 -31.515365
RightLeg 21.143618 -0.000000 -0.000000
RightFoot 43.360629 1.820320 -3.706909
RightToeBase 16.414741 -0.000000 -0.000000
985
root -15.012077 36.219080 -0.775766 204.878287 -61.602697 1.164344
Spine -42.431273 20.624217 -0.342913
Head -91.361421 6.942313 -2.284155
LeftShoulder -17.859003 -4.147751 28.449238
LeftArm 96.760126 -60.138354 -61.857257
LeftForeArm 7.232599 -0.000000 25.412463
LeftHand -42.610465 0.000000 94.541901
LeftHandThumb1 -26.253704 0.000000 33.147579
RightShoulder -17.084092 31.978885 -43.305017
RightArm 84.052600 38.432187 54.579111
RightForeArm -13.543703 -0.000000 28.876140
RightHand -10.684470 -0.000000 -77.570742
RightHandThumb1 -24.326973 -0.000000 -32.862282
LeftUpLeg -58.078528 27.134640 28.685271
LeftLeg 4.153015 -0.000000 -0.000000
LeftFoot 32.489219 31.322194 -5.113258
LeftToeBase 13.076909 -0.000000 -0.000000
RightUpLeg 27.742789 5.089381 -31.412440
RightLeg 21.321824 -0.000000 -0.000000
RightFoot 43.342855 1.620644 -3.687016
RightToeBase 16.285066 -0.000000 -0.000000
986
root -15.116171 36.216976 -0.782221 204.640939 -61.684536 1.808586
Spine -42.612278 20.717112 -0.132573
Head -91.405022 6.776557 -2.435868
LeftShoulder -17.745569 -4.080089 28.362594
LeftArm 96.410821 -60.457490 -61.490806
LeftForeArm 6.905238 -0.000000 25.504500
LeftHand -42.533237 0.000000 94.563257
LeftHandThumb1 -26.253704 0.000000 33.147579
RightShoulder -17.162929 31.797154 -43.324693
RightArm 84.243959 38.554330 54.544593
RightForeArm -13.332618 -0.000000 28.783835
RightHand -10.612966 0.000000 -77.539754
RightHandThumb1 -24.326973 -0.000000 -32.862282
LeftUpLeg -58.054502 27.155330 28.888260
LeftLeg 4.142599 -0.000000 -0.000000
LeftFoot 32.462130 31.542607 -5.280715
LeftToeBase 13.225016 -0.000000 -0.000000
RightUpLeg 27.683729 5.434198 -31.170949
RightLeg 21.524248 -0.000000 -0.000000
RightFoot 43.346050 1.465240 -3.627689
RightToeBase 16.191485 -0.000000 -0.000000
